# xmcd
#
# Track frame offsets: 
#        150
#        25537
#        47505
#        68100
#        91127
#        118382
#        138085
#        172455
#        193260
#        225015
#
# Disc length: 3764 seconds
#
# Revision: 9
# Processed by: cddbd v1.5.2PL0 Copyright (c) Steve Scherf et al.
# Submitted via: ExactAudioCopy v0.95a4
#
DISCID=7f0eb20a
DTITLE=Lynyrd Skynyrd - Then And Now
DYEAR=2000
DGENRE=Southern Rock
TTITLE0=Saturday Night Special
TTITLE1=Workin'
TTITLE2=Preacher Man
TTITLE3=Tomorrow's Goodbye
TTITLE4=That Smell
TTITLE5=Gone Fishin'
TTITLE6=Simple Man
TTITLE7=Voodoo Lake
TTITLE8=Sweet Home Alabama
TTITLE9=Free Bird
EXTD=Year: 2000\n\n(c)2000 CMC International\nMade under license 2000,
EXTD=SPV Recordings, a divison of SPV GmbH\nDistributed by SPV GmbH, 
EXTD=PO Box 721147, 30531 Hannover, Germany\nMade in Germany\nupc 4001
EXTD=617299425\nSPV 076-29942 CD                                 www.s
EXTD=pv.de\n\n\n
EXTT0=
EXTT1=
EXTT2=
EXTT3=
EXTT4=
EXTT5=
EXTT6=
EXTT7=
EXTT8=
EXTT9=
PLAYORDER=
